{
  "accessors": [
    {
      "bufferView": 2,
      "componentType": 5126,
      "count": 1849,
      "max": [
        0.7903310060501099,
        0.9150819778442383,
        2.76540207862854
      ],
      "min": [
        -0.5619140267372131,
        -0.5224310159683228,
        0.7688680291175842
      ],
      "type": "VEC3"
    },
    {
      "bufferView": 2,
      "byteOffset": 22188,
      "componentType": 5126,
      "count": 1849,
      "max": [
        0.9998040199279785,
        0.9977332353591919,
        0.9941344857215881
      ],
      "min": [
        -0.9995192289352417,
        -0.9998453855514526,
        -0.999638020992279
      ],
      "type": "VEC3"
    },
    {
      "bufferView": 1,
      "componentType": 5126,
      "count": 1849,
      "max": [
        0.9912359714508057,
        0.9962700009346008
      ],
      "min": [
        0.0017859999788925052,
        0.10424800217151642
      ],
      "type": "VEC2"
    },
    {
      "bufferView": 0,
      "componentType": 5125,
      "count": 10038,
      "type": "SCALAR"
    },
    {
      "bufferView": 2,
      "byteOffset": 44376,
      "componentType": 5126,
      "count": 2576,
      "max": [
        0.742821991443634,
        0.6579939723014832,
        1.6426969766616821
      ],
      "min": [
        -0.8095960021018982,
        -0.38513898849487305,
        0.2144239991903305
      ],
      "type": "VEC3"
    },
    {
      "bufferView": 2,
      "byteOffset": 75288,
      "componentType": 5126,
      "count": 2576,
      "max": [
        0.9999141097068787,
        0.9998096227645874,
        0.9996660947799683
      ],
      "min": [
        -0.998737096786499,
        -0.9984819889068604,
        -0.9949504137039185
      ],
      "type": "VEC3"
    },
    {
      "bufferView": 1,
      "byteOffset": 14792,
      "componentType": 5126,
      "count": 2576,
      "max": [
        0.9979050159454346,
        0.997409999370575
      ],
      "min": [
        0.01785999909043312,
        0.002945000072941184
      ],
      "type": "VEC2"
    },
    {
      "bufferView": 0,
      "byteOffset": 40152,
      "componentType": 5125,
      "count": 13785,
      "type": "SCALAR"
    },
    {
      "bufferView": 2,
      "byteOffset": 106200,
      "componentType": 5126,
      "count": 2635,
      "max": [
        0.6945949792861938,
        0.6657990217208862,
        2.021522045135498
      ],
      "min": [
        -0.8567270040512085,
        -0.3966769874095917,
        0.0024190000258386135
      ],
      "type": "VEC3"
    },
    {
      "bufferView": 2,
      "byteOffset": 137820,
      "componentType": 5126,
      "count": 2635,
      "max": [
        0.9996650218963623,
        0.999999463558197,
        0.9995231032371521
      ],
      "min": [
        -0.9993192553520203,
        -0.9989132285118103,
        -0.9999901056289673
      ],
      "type": "VEC3"
    },
    {
      "bufferView": 1,
      "byteOffset": 35400,
      "componentType": 5126,
      "count": 2635,
      "max": [
        0.9958909749984741,
        0.5718380212783813
      ],
      "min": [
        0.007269999943673611,
        0.004621999803930521
      ],
      "type": "VEC2"
    },
    {
      "bufferView": 0,
      "byteOffset": 95292,
      "componentType": 5125,
      "count": 12624,
      "type": "SCALAR"
    },
    {
      "bufferView": 2,
      "byteOffset": 169440,
      "componentType": 5126,
      "count": 2760,
      "max": [
        0.5640429854393005,
        0.5511980056762695,
        1.4042390584945679
      ],
      "min": [
        -0.8555399775505066,
        -0.3667370080947876,
        0.08289399743080139
      ],
      "type": "VEC3"
    },
    {
      "bufferView": 2,
      "byteOffset": 202560,
      "componentType": 5126,
      "count": 2760,
      "max": [
        0.9998869895935059,
        0.9986757636070251,
        0.9973599910736084
      ],
      "min": [
        -0.9993078708648682,
        -0.9990928769111633,
        -0.9997949004173279
      ],
      "type": "VEC3"
    },
    {
      "bufferView": 1,
      "byteOffset": 56480,
      "componentType": 5126,
      "count": 2760,
      "max": [
        0.7928919792175293,
        0.9972230195999146
      ],
      "min": [
        0.004282999783754349,
        0.10424800217151642
      ],
      "type": "VEC2"
    },
    {
      "bufferView": 0,
      "byteOffset": 145788,
      "componentType": 5125,
      "count": 14814,
      "type": "SCALAR"
    },
    {
      "bufferView": 2,
      "byteOffset": 235680,
      "componentType": 5126,
      "count": 221,
      "max": [
        0.44150298833847046,
        -0.014135999605059624,
        1.0012539625167847
      ],
      "min": [
        -0.44150298833847046,
        -0.3252530097961426,
        0.8005449771881104
      ],
      "type": "VEC3"
    },
    {
      "bufferView": 2,
      "byteOffset": 238332,
      "componentType": 5126,
      "count": 221,
      "max": [
        0.9259215593338013,
        0.959758996963501,
        0.9925992488861084
      ],
      "min": [
        -0.925921618938446,
        -0.9739136695861816,
        -0.989450991153717
      ],
      "type": "VEC3"
    },
    {
      "bufferView": 1,
      "byteOffset": 78560,
      "componentType": 5126,
      "count": 221,
      "max": [
        0.6423789858818054,
        0.19334599375724792
      ],
      "min": [
        0.415012001991272,
        0.1172730028629303
      ],
      "type": "VEC2"
    },
    {
      "bufferView": 0,
      "byteOffset": 205044,
      "componentType": 5125,
      "count": 1152,
      "type": "SCALAR"
    },
    {
      "bufferView": 2,
      "byteOffset": 240984,
      "componentType": 5126,
      "count": 196,
      "max": [
        1.5111939907073975,
        1.511193037033081,
        0.04202700033783913
      ],
      "min": [
        -1.5111939907073975,
        -1.511193037033081,
        -0.026600999757647514
      ],
      "type": "VEC3"
    },
    {
      "bufferView": 2,
      "byteOffset": 243336,
      "componentType": 5126,
      "count": 196,
      "max": [
        1.0,
        0.9999719858169556,
        1.0
      ],
      "min": [
        -0.9992827773094177,
        -0.9999697804450989,
        -0.005888999905437231
      ],
      "type": "VEC3"
    },
    {
      "bufferView": 1,
      "byteOffset": 80328,
      "componentType": 5126,
      "count": 196,
      "max": [
        0.999875009059906,
        1.0
      ],
      "min": [
        3.899999865097925e-05,
        0.0
      ],
      "type": "VEC2"
    },
    {
      "bufferView": 0,
      "byteOffset": 209652,
      "componentType": 5125,
      "count": 426,
      "type": "SCALAR"
    }
  ],
  "asset": {
    "extras": {
      "author": "Antoine Dupuis (https://sketchfab.com/gravitybwlast)",
      "license": "CC-BY-4.0 (http://creativecommons.org/licenses/by/4.0/)",
      "source": "https://sketchfab.com/3d-models/vivi-ornitier-retrogasm-art-competition-be1e505ef3304343bf00736644730c70",
      "title": "Vivi Ornitier - Retrogasm Art Competition"
    },
    "generator": "Sketchfab-12.67.0",
    "version": "2.0"
  },
  "bufferViews": [
    {
      "buffer": 0,
      "byteLength": 211356,
      "name": "floatBufferViews",
      "target": 34963
    },
    {
      "buffer": 0,
      "byteLength": 81896,
      "byteOffset": 211356,
      "byteStride": 8,
      "name": "floatBufferViews",
      "target": 34962
    },
    {
      "buffer": 0,
      "byteLength": 245688,
      "byteOffset": 293252,
      "byteStride": 12,
      "name": "floatBufferViews",
      "target": 34962
    }
  ],
  "buffers": [
    {
      "byteLength": 538940,
      "uri": "scene.bin"
    }
  ],
  "extensionsUsed": [
    "KHR_materials_unlit"
  ],
  "images": [
    {
      "uri": "textures/lambert14SG_baseColor.png"
    },
    {
      "uri": "textures/lambert16SG_baseColor.png"
    }
  ],
  "materials": [
    {
      "doubleSided": true,
      "extensions": {
        "KHR_materials_unlit": {}
      },
      "name": "lambert14SG",
      "pbrMetallicRoughness": {
        "baseColorTexture": {
          "index": 0
        },
        "metallicFactor": 0.0
      }
    },
    {
      "alphaMode": "BLEND",
      "doubleSided": true,
      "extensions": {
        "KHR_materials_unlit": {}
      },
      "name": "lambert16SG",
      "pbrMetallicRoughness": {
        "baseColorTexture": {
          "index": 1
        },
        "metallicFactor": 0.0
      }
    }
  ],
  "meshes": [
    {
      "name": "Object_0",
      "primitives": [
        {
          "attributes": {
            "NORMAL": 1,
            "POSITION": 0,
            "TEXCOORD_0": 2
          },
          "indices": 3,
          "material": 0,
          "mode": 4
        }
      ]
    },
    {
      "name": "Object_1",
      "primitives": [
        {
          "attributes": {
            "NORMAL": 5,
            "POSITION": 4,
            "TEXCOORD_0": 6
          },
          "indices": 7,
          "material": 0,
          "mode": 4
        }
      ]
    },
    {
      "name": "Object_2",
      "primitives": [
        {
          "attributes": {
            "NORMAL": 9,
            "POSITION": 8,
            "TEXCOORD_0": 10
          },
          "indices": 11,
          "material": 0,
          "mode": 4
        }
      ]
    },
    {
      "name": "Object_3",
      "primitives": [
        {
          "attributes": {
            "NORMAL": 13,
            "POSITION": 12,
            "TEXCOORD_0": 14
          },
          "indices": 15,
          "material": 0,
          "mode": 4
        }
      ]
    },
    {
      "name": "Object_4",
      "primitives": [
        {
          "attributes": {
            "NORMAL": 17,
            "POSITION": 16,
            "TEXCOORD_0": 18
          },
          "indices": 19,
          "material": 0,
          "mode": 4
        }
      ]
    },
    {
      "name": "Object_5",
      "primitives": [
        {
          "attributes": {
            "NORMAL": 21,
            "POSITION": 20,
            "TEXCOORD_0": 22
          },
          "indices": 23,
          "material": 1,
          "mode": 4
        }
      ]
    }
  ],
  "nodes": [
    {
      "children": [
        1
      ],
      "matrix": [
        1.0,
        0.0,
        0.0,
        0.0,
        0.0,
        2.220446049250313e-16,
        -1.0,
        0.0,
        0.0,
        1.0,
        2.220446049250313e-16,
        0.0,
        0.0,
        0.0,
        0.0,
        1.0
      ],
      "name": "Sketchfab_model"
    },
    {
      "children": [
        2,
        3,
        4,
        5,
        6,
        7
      ],
      "name": "Vivi_Final.obj.cleaner"
    },
    {
      "mesh": 0,
      "name": "Object_2"
    },
    {
      "mesh": 1,
      "name": "Object_3"
    },
    {
      "mesh": 2,
      "name": "Object_4"
    },
    {
      "mesh": 3,
      "name": "Object_5"
    },
    {
      "mesh": 4,
      "name": "Object_6"
    },
    {
      "mesh": 5,
      "name": "Object_7"
    }
  ],
  "samplers": [
    {
      "magFilter": 9729,
      "minFilter": 9987,
      "wrapS": 10497,
      "wrapT": 10497
    }
  ],
  "scene": 0,
  "scenes": [
    {
      "name": "Sketchfab_Scene",
      "nodes": [
        0
      ]
    }
  ],
  "textures": [
    {
      "sampler": 0,
      "source": 0
    },
    {
      "sampler": 0,
      "source": 1
    }
  ]
}
